<svg xmlns="http://www.w3.org/2000/svg" xmlns:xlink="http://www.w3.org/1999/xlink" width="40" zoomAndPan="magnify" viewBox="0 0 30 30.000001" height="40" preserveAspectRatio="xMidYMid meet" version="1.0"><defs><clipPath id="78395833c1"><path d="M 11 0.871094 L 19 0.871094 L 19 28.453125 L 11 28.453125 Z M 11 0.871094 " clip-rule="nonzero"/></clipPath></defs><g clip-path="url(#78395833c1)"><path fill="#ffffff" d="M 18.296875 4.320312 C 18.296875 4.777344 18.210938 5.214844 18.035156 5.636719 C 17.859375 6.058594 17.613281 6.433594 17.289062 6.757812 C 16.964844 7.078125 16.59375 7.328125 16.167969 7.503906 C 15.746094 7.679688 15.308594 7.765625 14.851562 7.765625 C 14.394531 7.765625 13.953125 7.679688 13.53125 7.503906 C 13.109375 7.328125 12.734375 7.078125 12.414062 6.757812 C 12.089844 6.433594 11.839844 6.058594 11.664062 5.636719 C 11.488281 5.214844 11.402344 4.777344 11.402344 4.320312 C 11.402344 3.863281 11.488281 3.421875 11.664062 3 C 11.839844 2.578125 12.089844 2.203125 12.414062 1.878906 C 12.734375 1.558594 13.109375 1.308594 13.53125 1.132812 C 13.953125 0.957031 14.394531 0.871094 14.851562 0.871094 C 15.308594 0.871094 15.746094 0.957031 16.167969 1.132812 C 16.59375 1.308594 16.964844 1.558594 17.289062 1.878906 C 17.613281 2.203125 17.859375 2.578125 18.035156 3 C 18.210938 3.421875 18.296875 3.863281 18.296875 4.320312 M 18.296875 25.003906 C 18.296875 25.460938 18.210938 25.902344 18.035156 26.324219 C 17.859375 26.746094 17.613281 27.117188 17.289062 27.441406 C 16.964844 27.765625 16.59375 28.015625 16.167969 28.1875 C 15.746094 28.363281 15.308594 28.453125 14.851562 28.453125 C 14.394531 28.453125 13.953125 28.363281 13.53125 28.1875 C 13.109375 28.015625 12.734375 27.765625 12.414062 27.441406 C 12.089844 27.117188 11.839844 26.746094 11.664062 26.324219 C 11.488281 25.902344 11.402344 25.460938 11.402344 25.003906 C 11.402344 24.546875 11.488281 24.105469 11.664062 23.683594 C 11.839844 23.261719 12.089844 22.890625 12.414062 22.566406 C 12.734375 22.242188 13.109375 21.992188 13.53125 21.820312 C 13.953125 21.644531 14.394531 21.554688 14.851562 21.554688 C 15.308594 21.554688 15.746094 21.644531 16.167969 21.820312 C 16.59375 21.992188 16.964844 22.242188 17.289062 22.566406 C 17.613281 22.890625 17.859375 23.261719 18.035156 23.683594 C 18.210938 24.105469 18.296875 24.546875 18.296875 25.003906 M 18.296875 14.972656 C 18.296875 15.429688 18.210938 15.871094 18.035156 16.292969 C 17.859375 16.714844 17.613281 17.085938 17.289062 17.410156 C 16.964844 17.734375 16.59375 17.984375 16.167969 18.15625 C 15.746094 18.332031 15.308594 18.421875 14.851562 18.421875 C 14.394531 18.421875 13.953125 18.332031 13.53125 18.15625 C 13.109375 17.984375 12.734375 17.734375 12.414062 17.410156 C 12.089844 17.085938 11.839844 16.714844 11.664062 16.292969 C 11.488281 15.871094 11.402344 15.429688 11.402344 14.972656 C 11.402344 14.515625 11.488281 14.074219 11.664062 13.652344 C 11.839844 13.230469 12.089844 12.859375 12.414062 12.535156 C 12.734375 12.210938 13.109375 11.960938 13.53125 11.789062 C 13.953125 11.613281 14.394531 11.523438 14.851562 11.523438 C 15.308594 11.523438 15.746094 11.613281 16.167969 11.789062 C 16.59375 11.960938 16.964844 12.210938 17.289062 12.535156 C 17.613281 12.859375 17.859375 13.230469 18.035156 13.652344 C 18.210938 14.074219 18.296875 14.515625 18.296875 14.972656 " fill-opacity="1" fill-rule="evenodd"/></g></svg>