<svg xmlns="http://www.w3.org/2000/svg" xmlns:xlink="http://www.w3.org/1999/xlink" width="40" zoomAndPan="magnify" viewBox="0 0 30 30.000001" height="40" preserveAspectRatio="xMidYMid meet" version="1.0"><defs><clipPath id="4994512465"><path d="M 0.484375 0 L 29.515625 0 L 29.515625 29.03125 L 0.484375 29.03125 Z M 0.484375 0 " clip-rule="nonzero"/></clipPath><clipPath id="e96b7bde25"><path d="M 12 4.898438 L 18 4.898438 L 18 24.496094 L 12 24.496094 Z M 12 4.898438 " clip-rule="nonzero"/></clipPath></defs><g clip-path="url(#4994512465)"><path fill="#ffffff" d="M 15 29.03125 C 6.980469 29.03125 0.484375 22.492188 0.484375 14.515625 C 0.484375 6.542969 6.980469 0 15 0 C 23.019531 0 29.515625 6.496094 29.515625 14.515625 C 29.515625 22.535156 22.976562 29.03125 15 29.03125 Z M 15 0.894531 C 7.472656 0.894531 1.378906 6.988281 1.378906 14.515625 C 1.378906 22.042969 7.472656 28.136719 15 28.136719 C 22.527344 28.136719 28.621094 22.042969 28.621094 14.515625 C 28.621094 6.988281 22.480469 0.894531 15 0.894531 Z M 15 0.894531 " fill-opacity="1" fill-rule="nonzero"/></g><g clip-path="url(#e96b7bde25)"><path fill="#ffffff" d="M 17.269531 7.347656 C 17.269531 7.671875 17.207031 7.984375 17.082031 8.285156 C 16.957031 8.585938 16.78125 8.851562 16.550781 9.082031 C 16.320312 9.3125 16.054688 9.488281 15.757812 9.613281 C 15.457031 9.734375 15.144531 9.796875 14.820312 9.796875 C 14.492188 9.796875 14.179688 9.734375 13.882812 9.613281 C 13.582031 9.488281 13.316406 9.3125 13.085938 9.082031 C 12.855469 8.851562 12.679688 8.585938 12.554688 8.285156 C 12.429688 7.984375 12.367188 7.671875 12.367188 7.347656 C 12.367188 7.023438 12.429688 6.710938 12.554688 6.410156 C 12.679688 6.109375 12.855469 5.847656 13.085938 5.617188 C 13.316406 5.386719 13.582031 5.210938 13.882812 5.085938 C 14.179688 4.960938 14.492188 4.898438 14.820312 4.898438 C 15.144531 4.898438 15.457031 4.960938 15.757812 5.085938 C 16.054688 5.210938 16.320312 5.386719 16.550781 5.617188 C 16.78125 5.847656 16.957031 6.109375 17.082031 6.410156 C 17.207031 6.710938 17.269531 7.023438 17.269531 7.347656 M 17.269531 22.046875 C 17.269531 22.371094 17.207031 22.683594 17.082031 22.984375 C 16.957031 23.285156 16.78125 23.546875 16.550781 23.777344 C 16.320312 24.007812 16.054688 24.183594 15.757812 24.308594 C 15.457031 24.433594 15.144531 24.496094 14.820312 24.496094 C 14.492188 24.496094 14.179688 24.433594 13.882812 24.308594 C 13.582031 24.183594 13.316406 24.007812 13.085938 23.777344 C 12.855469 23.546875 12.679688 23.285156 12.554688 22.984375 C 12.429688 22.683594 12.367188 22.371094 12.367188 22.046875 C 12.367188 21.722656 12.429688 21.410156 12.554688 21.109375 C 12.679688 20.808594 12.855469 20.542969 13.085938 20.3125 C 13.316406 20.085938 13.582031 19.90625 13.882812 19.785156 C 14.179688 19.660156 14.492188 19.597656 14.820312 19.597656 C 15.144531 19.597656 15.457031 19.660156 15.757812 19.785156 C 16.054688 19.90625 16.320312 20.085938 16.550781 20.3125 C 16.78125 20.542969 16.957031 20.808594 17.082031 21.109375 C 17.207031 21.410156 17.269531 21.722656 17.269531 22.046875 M 17.269531 14.917969 C 17.269531 15.242188 17.207031 15.554688 17.082031 15.855469 C 16.957031 16.15625 16.78125 16.421875 16.550781 16.652344 C 16.320312 16.878906 16.054688 17.058594 15.757812 17.183594 C 15.457031 17.304688 15.144531 17.367188 14.820312 17.367188 C 14.492188 17.367188 14.179688 17.304688 13.882812 17.183594 C 13.582031 17.058594 13.316406 16.878906 13.085938 16.652344 C 12.855469 16.421875 12.679688 16.15625 12.554688 15.855469 C 12.429688 15.554688 12.367188 15.242188 12.367188 14.917969 C 12.367188 14.59375 12.429688 14.28125 12.554688 13.980469 C 12.679688 13.679688 12.855469 13.417969 13.085938 13.1875 C 13.316406 12.957031 13.582031 12.78125 13.882812 12.65625 C 14.179688 12.53125 14.492188 12.46875 14.820312 12.46875 C 15.144531 12.46875 15.457031 12.53125 15.757812 12.65625 C 16.054688 12.78125 16.320312 12.957031 16.550781 13.1875 C 16.78125 13.417969 16.957031 13.679688 17.082031 13.980469 C 17.207031 14.28125 17.269531 14.59375 17.269531 14.917969 " fill-opacity="1" fill-rule="evenodd"/></g></svg>