<svg xmlns="http://www.w3.org/2000/svg" xmlns:xlink="http://www.w3.org/1999/xlink" width="40" zoomAndPan="magnify" viewBox="0 0 30 30.000001" height="40" preserveAspectRatio="xMidYMid meet" version="1.0"><defs><clipPath id="4f2434229b"><path d="M 0.484375 0 L 29.515625 0 L 29.515625 29.03125 L 0.484375 29.03125 Z M 0.484375 0 " clip-rule="nonzero"/></clipPath></defs><g clip-path="url(#4f2434229b)"><path fill="#ffffff" d="M 15 29.03125 C 6.980469 29.03125 0.484375 22.492188 0.484375 14.515625 C 0.484375 6.542969 6.980469 0 15 0 C 23.019531 0 29.515625 6.496094 29.515625 14.515625 C 29.515625 22.535156 22.976562 29.03125 15 29.03125 Z M 15 0.894531 C 7.472656 0.894531 1.378906 6.988281 1.378906 14.515625 C 1.378906 22.042969 7.472656 28.136719 15 28.136719 C 22.527344 28.136719 28.621094 22.042969 28.621094 14.515625 C 28.621094 6.988281 22.480469 0.894531 15 0.894531 Z M 15 0.894531 " fill-opacity="1" fill-rule="nonzero"/></g><path stroke-linecap="round" transform="matrix(0.907258, 0, 0, 0.907258, 4.004032, 3.520163)" fill="none" stroke-linejoin="round" d="M 4.998612 4.998053 C 4.998612 4.640692 5.089028 4.309165 5.269862 3.999165 C 5.446389 3.689165 5.691806 3.443748 6.001806 3.26722 C 6.316112 3.086387 6.64764 3.000276 7.005001 3.000276 C 7.366667 3.000276 7.698195 3.090692 8.008195 3.271526 L 20.003473 10.268054 C 20.158473 10.35847 20.291945 10.461804 20.416806 10.586665 C 20.541667 10.711526 20.645001 10.849304 20.735417 10.999998 C 20.821529 11.150692 20.886112 11.314304 20.933473 11.48222 C 20.976529 11.650137 21.002362 11.822359 21.002362 11.998887 C 21.002362 12.171109 20.980834 12.343331 20.933473 12.515554 C 20.890417 12.68347 20.821529 12.842776 20.735417 12.997776 C 20.649306 13.14847 20.541667 13.286248 20.421112 13.411109 C 20.296251 13.531665 20.158473 13.639304 20.007779 13.72972 L 8.008195 20.726248 C 7.698195 20.907081 7.366667 20.997498 7.005001 21.001804 C 6.64764 21.001804 6.316112 20.911387 6.001806 20.734859 C 5.691806 20.558331 5.446389 20.312915 5.269862 20.002915 C 5.089028 19.692915 4.998612 19.357081 4.998612 18.99972 Z M 4.998612 4.998053 " stroke="#ffffff" stroke-width="2" stroke-opacity="1" stroke-miterlimit="4"/></svg>