<svg xmlns="http://www.w3.org/2000/svg" xmlns:xlink="http://www.w3.org/1999/xlink" width="40" zoomAndPan="magnify" viewBox="0 0 30 30.000001" height="40" preserveAspectRatio="xMidYMid meet" version="1.0"><path fill="#ffffff" d="M 11.460938 15.726562 L 4.113281 15.726562 C 3.769531 15.726562 3.484375 15.609375 3.25 15.378906 C 3.019531 15.144531 2.902344 14.859375 2.902344 14.515625 C 2.902344 14.175781 3.019531 13.886719 3.25 13.65625 C 3.484375 13.421875 3.773438 13.304688 4.113281 13.304688 L 11.460938 13.304688 L 8.648438 10.464844 C 8.425781 10.242188 8.3125 9.964844 8.300781 9.632812 C 8.289062 9.300781 8.40625 9.011719 8.648438 8.769531 C 8.871094 8.546875 9.152344 8.4375 9.496094 8.4375 C 9.839844 8.4375 10.121094 8.546875 10.34375 8.769531 L 15.242188 13.667969 C 15.484375 13.910156 15.605469 14.195312 15.605469 14.515625 C 15.605469 14.839844 15.484375 15.121094 15.242188 15.363281 L 10.34375 20.261719 C 10.121094 20.484375 9.84375 20.601562 9.511719 20.609375 C 9.179688 20.621094 8.890625 20.503906 8.648438 20.261719 C 8.425781 20.039062 8.316406 19.757812 8.316406 19.414062 C 8.316406 19.074219 8.425781 18.789062 8.648438 18.570312 Z M 17.417969 20.566406 C 17.078125 20.566406 16.789062 20.449219 16.558594 20.214844 C 16.328125 19.984375 16.210938 19.695312 16.210938 19.355469 C 16.207031 19.011719 16.324219 18.726562 16.558594 18.492188 C 16.792969 18.261719 17.078125 18.144531 17.417969 18.144531 L 25.886719 18.144531 C 26.230469 18.144531 26.515625 18.261719 26.75 18.492188 C 26.980469 18.726562 27.097656 19.011719 27.097656 19.355469 C 27.097656 19.695312 26.980469 19.984375 26.75 20.21875 C 26.515625 20.449219 26.230469 20.566406 25.886719 20.566406 Z M 17.417969 10.886719 C 17.078125 10.886719 16.789062 10.769531 16.558594 10.539062 C 16.328125 10.304688 16.210938 10.019531 16.210938 9.675781 C 16.207031 9.335938 16.324219 9.046875 16.558594 8.816406 C 16.792969 8.582031 17.078125 8.46875 17.417969 8.46875 L 25.886719 8.46875 C 26.230469 8.46875 26.515625 8.582031 26.75 8.816406 C 26.980469 9.046875 27.097656 9.335938 27.097656 9.675781 C 27.097656 10.019531 26.980469 10.308594 26.75 10.539062 C 26.515625 10.773438 26.230469 10.890625 25.886719 10.886719 Z M 21.046875 15.726562 C 20.707031 15.726562 20.417969 15.609375 20.1875 15.378906 C 19.957031 15.144531 19.839844 14.859375 19.839844 14.515625 C 19.839844 14.175781 19.953125 13.886719 20.1875 13.65625 C 20.421875 13.421875 20.707031 13.304688 21.046875 13.304688 L 25.886719 13.304688 C 26.230469 13.304688 26.515625 13.421875 26.75 13.65625 C 26.980469 13.886719 27.097656 14.175781 27.097656 14.515625 C 27.097656 14.859375 26.980469 15.144531 26.75 15.378906 C 26.515625 15.613281 26.230469 15.726562 25.886719 15.726562 Z M 21.046875 15.726562 " fill-opacity="1" fill-rule="nonzero"/></svg>