<svg xmlns="http://www.w3.org/2000/svg" xmlns:xlink="http://www.w3.org/1999/xlink" width="40" zoomAndPan="magnify" viewBox="0 0 30 30.000001" height="40" preserveAspectRatio="xMidYMid meet" version="1.0"><defs><clipPath id="801181178f"><path d="M 0.484375 0 L 29.515625 0 L 29.515625 29.03125 L 0.484375 29.03125 Z M 0.484375 0 " clip-rule="nonzero"/></clipPath></defs><g clip-path="url(#801181178f)"><path fill="#ffffff" d="M 15 29.03125 C 6.980469 29.03125 0.484375 22.492188 0.484375 14.515625 C 0.484375 6.542969 6.980469 0 15 0 C 23.019531 0 29.515625 6.496094 29.515625 14.515625 C 29.515625 22.535156 22.976562 29.03125 15 29.03125 Z M 15 0.894531 C 7.472656 0.894531 1.378906 6.988281 1.378906 14.515625 C 1.378906 22.042969 7.472656 28.136719 15 28.136719 C 22.527344 28.136719 28.621094 22.042969 28.621094 14.515625 C 28.621094 6.988281 22.480469 0.894531 15 0.894531 Z M 15 0.894531 " fill-opacity="1" fill-rule="nonzero"/></g><path stroke-linecap="round" transform="matrix(1.209677, 0, 0, 1.209677, 0.48387, 0.00000193548)" fill="none" stroke-linejoin="round" d="M 12.000001 4.000936 L 12.000001 20.001458 M 7.999063 8.999687 L 7.999063 14.999479 M 19.998648 10.000728 L 19.998648 13.998437 M 4.001355 10.000728 L 4.001355 13.998437 M 16.000939 7.000832 L 16.000939 17.001562 " stroke="#ffffff" stroke-width="1.5" stroke-opacity="1" stroke-miterlimit="4"/></svg>